# xmcd CD database file
#
# Track frame offsets:
#	150
#	15425
#	31775
#	47925
#	64337
#	83312
#	97650
#	112375
#	130912
#	148562
#
# Disc length: 2190 seconds
#
# Revision: 0
# Processed by: cddbd v1.4PL0 Copyright (c) Steve Scherf et al.
# Submitted via: CDex 1.40Beta9
#
DISCID=7a088c0a
DTITLE=Various Artist - Country Classics - disc 3
DYEAR=2001
DGENRE=Country
TTITLE0=Eddie Rabbit/The Wanderer
TTITLE1=Vince Gill/Oklahoma Borderline
TTITLE2=Restless Heart/Big Dreams In A Small Town
TTITLE3=Alabama/Feels So Right
TTITLE4=K.T. Oslin/80's Ladies
TTITLE5=Earl Thomas Conley/Holding Her And Loving You
TTITLE6=Lorrie Morgan/Out Of Your Shoes
TTITLE7=Juice Newton/You Make Me Want To Make You Mine
TTITLE8=Michael Johnson/The Moon Is Still Over Her Shoulder
TTITLE9=Steve Wariner/All Roads Lead To You
EXTD=YEAR: 2001 ID3G: 2
EXTT0=
EXTT1=
EXTT2=
EXTT3=
EXTT4=
EXTT5=
EXTT6=
EXTT7=
EXTT8=
EXTT9=
PLAYORDER=
